<svg xmlns="http://www.w3.org/2000/svg" width="32.033" height="32.033" viewBox="0 0 32.033 32.033">
  <g id="Group_239" data-name="Group 239" transform="translate(-202.484 -575.483)">
    <g id="_360-degrees" data-name="360-degrees" transform="translate(202.484 575.483)">
      <path id="Path_297" data-name="Path 297" d="M27.342,4.691A16.016,16.016,0,0,0,4.691,27.342,16.017,16.017,0,0,0,26.3,28.3a.471.471,0,0,0-.6-.721,15.06,15.06,0,0,1-5.571,2.943,11.526,11.526,0,0,0,2.759-3.273,17.712,17.712,0,0,0,1.382-2.984,17.712,17.712,0,0,0,2.984-1.382,11.514,11.514,0,0,0,3.28-2.768,15.024,15.024,0,0,1-3.494,6.194.471.471,0,1,0,.687.643,16.017,16.017,0,0,0-.379-22.258Zm-.665.665a14.99,14.99,0,0,1,3.857,6.571,11.509,11.509,0,0,0-3.286-2.776,17.7,17.7,0,0,0-2.981-1.381,17.4,17.4,0,0,0-1.6-3.336.47.47,0,1,0-.8.5,15.719,15.719,0,0,1,1.237,2.459,25.253,25.253,0,0,0-7.091-.981,25.252,25.252,0,0,0-7.092.981A15,15,0,0,1,10.655,4.2C12.2,2.069,14.058.941,16.016.941a6.377,6.377,0,0,1,4.752,2.493.471.471,0,1,0,.71-.618A9.9,9.9,0,0,0,20.1,1.5,14.994,14.994,0,0,1,26.676,5.357ZM6.955,13.988a.47.47,0,0,0-.5.442c-.031.523-.046,1.057-.046,1.586a25.245,25.245,0,0,0,.982,7.1A16.3,16.3,0,0,1,5.262,22.07C2.476,20.432.941,18.283.941,16.016S2.476,11.6,5.262,9.963A16.278,16.278,0,0,1,7.4,8.917a23.738,23.738,0,0,0-.761,3.6.471.471,0,0,0,.4.528.492.492,0,0,0,.062,0,.471.471,0,0,0,.466-.409,22.449,22.449,0,0,1,.942-4.137,23.913,23.913,0,0,1,7.5-1.154,23.916,23.916,0,0,1,7.5,1.153,24.1,24.1,0,0,1,1.165,7.511,23.91,23.91,0,0,1-1.156,7.508,23.91,23.91,0,0,1-7.508,1.156,23.91,23.91,0,0,1-7.508-1.156,23.91,23.91,0,0,1-1.156-7.508c0-.511.015-1.026.044-1.531A.471.471,0,0,0,6.955,13.988Zm-1.6-8.632a14.99,14.99,0,0,1,6.592-3.863A10.5,10.5,0,0,0,9.893,3.65,16.536,16.536,0,0,0,7.776,7.767a17.717,17.717,0,0,0-2.99,1.384A11.509,11.509,0,0,0,1.5,11.927,14.99,14.99,0,0,1,5.357,5.357Zm0,21.32A14.99,14.99,0,0,1,1.5,20.105a11.509,11.509,0,0,0,3.286,2.776A17.706,17.706,0,0,0,7.77,24.263a17.712,17.712,0,0,0,1.382,2.984,11.509,11.509,0,0,0,2.776,3.286A14.99,14.99,0,0,1,5.357,26.676Zm16.713.094c-1.637,2.787-3.787,4.321-6.053,4.321S11.6,29.557,9.963,26.771A16.3,16.3,0,0,1,8.92,24.639a25.254,25.254,0,0,0,7.1.982,25.244,25.244,0,0,0,7.1-.982A16.251,16.251,0,0,1,22.07,26.771Zm4.7-4.7a16.263,16.263,0,0,1-2.132,1.043,25.253,25.253,0,0,0,.982-7.1,25.218,25.218,0,0,0-.979-7.1,16.277,16.277,0,0,1,2.128,1.042c2.787,1.637,4.321,3.787,4.321,6.053S29.557,20.432,26.771,22.07Zm0,0" fill="#fff"/>
      <path id="Path_298" data-name="Path 298" d="M151.393,224.129a.471.471,0,1,0,0,.941H153.6a.471.471,0,0,0,.47-.471v-4.773a.471.471,0,0,0-.47-.471h-2.209a.471.471,0,1,0,0,.941h1.738v1.446h-1.738a.471.471,0,1,0,0,.941h1.738v1.446Zm0,0" transform="translate(-141.48 -205.632)" fill="#fff"/>
      <path id="Path_299" data-name="Path 299" d="M285.228,225.07h2.387a.471.471,0,0,0,.47-.471v-4.773a.471.471,0,0,0-.47-.471h-2.387a.471.471,0,0,0-.47.471V224.6A.471.471,0,0,0,285.228,225.07Zm1.916-2.857v1.916H285.7V220.3h1.445Zm0,0" transform="translate(-266.942 -205.632)" fill="#fff"/>
      <path id="Path_300" data-name="Path 300" d="M218.033,225.07h2.387a.471.471,0,0,0,.471-.471v-2.386a.471.471,0,0,0-.471-.471H218.5V220.3h1.916a.471.471,0,1,0,0-.941h-2.387a.471.471,0,0,0-.471.471V224.6A.471.471,0,0,0,218.033,225.07Zm.47-2.387h1.446v1.446H218.5Zm0,0" transform="translate(-203.951 -205.632)" fill="#fff"/>
      <path id="Path_301" data-name="Path 301" d="M331.417,171.193a1.3,1.3,0,1,0-1.3-1.3A1.3,1.3,0,0,0,331.417,171.193Zm0-1.651a.355.355,0,1,1-.355.355A.355.355,0,0,1,331.417,169.543Zm0,0" transform="translate(-309.467 -158.053)" fill="#fff"/>
    </g>
  </g>
</svg>
