<svg xmlns="http://www.w3.org/2000/svg" width="30.467" height="30.467" viewBox="0 0 30.467 30.467">
  <path id="Path_286" data-name="Path 286" d="M26.005,4.462A15.233,15.233,0,1,0,4.462,26.005a15.234,15.234,0,0,0,20.55.91.448.448,0,0,0-.575-.686,14.324,14.324,0,0,1-5.3,2.8,10.962,10.962,0,0,0,2.624-3.113,16.846,16.846,0,0,0,1.315-2.838,16.846,16.846,0,0,0,2.838-1.315,10.951,10.951,0,0,0,3.119-2.633,14.289,14.289,0,0,1-3.323,5.891.448.448,0,1,0,.654.611,15.234,15.234,0,0,0-.361-21.17Zm-.633.633a14.258,14.258,0,0,1,3.668,6.25A10.947,10.947,0,0,0,25.915,8.7,16.832,16.832,0,0,0,23.08,7.391a16.547,16.547,0,0,0-1.52-3.173.447.447,0,0,0-.759.475,14.95,14.95,0,0,1,1.176,2.338A24.019,24.019,0,0,0,15.233,6.1a24.018,24.018,0,0,0-6.746.933A14.264,14.264,0,0,1,10.134,4c1.473-2.029,3.237-3.1,5.1-3.1a6.066,6.066,0,0,1,4.52,2.371.448.448,0,1,0,.675-.588,9.421,9.421,0,0,0-1.314-1.255A14.262,14.262,0,0,1,25.372,5.095ZM6.615,13.3a.447.447,0,0,0-.473.421c-.029.5-.044,1.005-.044,1.508a24.011,24.011,0,0,0,.934,6.75A15.5,15.5,0,0,1,5,20.991C2.355,19.433.9,17.389.9,15.233s1.46-4.2,4.11-5.757a15.482,15.482,0,0,1,2.033-.995,22.577,22.577,0,0,0-.723,3.426.448.448,0,0,0,.385.5.467.467,0,0,0,.059,0,.448.448,0,0,0,.443-.389A21.351,21.351,0,0,1,8.1,8.09a22.744,22.744,0,0,1,7.135-1.1,22.747,22.747,0,0,1,7.133,1.1,22.922,22.922,0,0,1,1.108,7.144,22.741,22.741,0,0,1-1.1,7.141,22.742,22.742,0,0,1-7.141,1.1,22.741,22.741,0,0,1-7.141-1.1,22.741,22.741,0,0,1-1.1-7.141c0-.486.014-.976.042-1.456A.448.448,0,0,0,6.615,13.3Zm-1.52-8.21a14.258,14.258,0,0,1,6.27-3.674A9.984,9.984,0,0,0,9.41,3.471,15.727,15.727,0,0,0,7.4,7.388,16.852,16.852,0,0,0,4.551,8.7a10.947,10.947,0,0,0-3.125,2.64A14.258,14.258,0,0,1,5.095,5.095Zm0,20.277a14.258,14.258,0,0,1-3.668-6.25,10.947,10.947,0,0,0,3.125,2.64A16.84,16.84,0,0,0,7.39,23.077,16.846,16.846,0,0,0,8.7,25.915a10.947,10.947,0,0,0,2.64,3.125A14.258,14.258,0,0,1,5.095,25.372Zm15.9.09c-1.557,2.65-3.6,4.11-5.757,4.11s-4.2-1.46-5.757-4.11a15.5,15.5,0,0,1-.993-2.027,24.02,24.02,0,0,0,6.75.934,24.01,24.01,0,0,0,6.75-.934A15.457,15.457,0,0,1,20.991,25.462Zm4.471-4.471a15.468,15.468,0,0,1-2.027.992,24.018,24.018,0,0,0,.934-6.75,23.986,23.986,0,0,0-.931-6.749,15.481,15.481,0,0,1,2.024.991c2.65,1.557,4.11,3.6,4.11,5.757S28.112,19.433,25.462,20.991Zm0,0" transform="translate(0 0)" fill="#fff"/>
</svg>
