<svg id="email" xmlns="http://www.w3.org/2000/svg" width="52.305" height="35.96" viewBox="0 0 52.305 35.96">
  <g id="Group_165" data-name="Group 165" transform="translate(34.672 6.63)">
    <g id="Group_164" data-name="Group 164">
      <path id="Path_216" data-name="Path 216" d="M339.392,156.514l17.633,11.148V144.9Z" transform="translate(-339.392 -144.896)" fill="#464646"/>
    </g>
  </g>
  <g id="Group_167" data-name="Group 167" transform="translate(0 6.63)">
    <g id="Group_166" data-name="Group 166">
      <path id="Path_217" data-name="Path 217" d="M0,144.9v22.766l17.633-11.148Z" transform="translate(0 -144.896)" fill="#464646"/>
    </g>
  </g>
  <g id="Group_169" data-name="Group 169" transform="translate(0.098 0)">
    <g id="Group_168" data-name="Group 168">
      <path id="Path_218" data-name="Path 218" d="M49.9,80H4.131A3.229,3.229,0,0,0,.96,82.782L27.015,99.948,53.069,82.782A3.229,3.229,0,0,0,49.9,80Z" transform="translate(-0.96 -80)" fill="#464646"/>
    </g>
  </g>
  <g id="Group_171" data-name="Group 171" transform="translate(0.105 20.219)">
    <g id="Group_170" data-name="Group 170">
      <path id="Path_219" data-name="Path 219" d="M32.6,277.923l-4.626,3.047a1.642,1.642,0,0,1-1.8,0l-4.626-3.05L1.024,290.9a3.223,3.223,0,0,0,3.164,2.759H49.956A3.223,3.223,0,0,0,53.12,290.9Z" transform="translate(-1.024 -277.92)" fill="#464646"/>
    </g>
  </g>
</svg>
