<svg xmlns="http://www.w3.org/2000/svg" width="616.272" height="278.86" viewBox="0 0 616.272 278.86">
  <g id="Group_159" data-name="Group 159" transform="translate(118.137 -675.999)">
    <ellipse id="Ellipse_50" data-name="Ellipse 50" cx="308.136" cy="135.43" rx="308.136" ry="135.43" transform="translate(-118.137 684)" fill="#00a3db"/>
    <path id="Intersection_1" data-name="Intersection 1" d="M139.253,172.179c-4.224.208-8.433.417-12.657.673-3.5,4.04-7.579,5.306-12.119,2.1-.68-.528-.238-2.693-.316-4.072,3.639.1,7.325.16,11.012.257-1.361-3.062-2.738-6.172-4.066-9.234-4.557-.064-9.113-.1-13.622-.193.142,10.565-6.519,11.335-14.381,10.325-13.9,2.084-27.379,4.994-41.583,3.432q-8.192-1.713-15.962-3.762c-9.663-3.594-13.239-8.3-10.487-18.683,1.867-7.053,1.187-14.941-3.528-17.057C-14.371,119.918,6.75,87.92,1.339,63.52-.48,55.328,6.4,53.918,13.427,53.469c1.771-.111,3.546.871,5.348,1.853C22.2,57.19,25.726,59.058,29.5,53.405,24.755,44.684,6.07,56.435,8.728,39.667c2.04-12.921,11.771-21.145,24.38-21.273,17.1-.133,30.374-5.264,41.65-15.825A394.276,394.276,0,0,1,115.987-.98c-.967,10.592-2.73,21.11-7.6,31.653-4.826,10.468-7.467,30.218,16.818,28.215,4.841-.4,9.4.721,10.093,6.893.7,5.963-1.138,13.4-6.313,13.691a32.746,32.746,0,0,0-9.682,1.715,15.911,15.911,0,0,0-1.741.851,29.351,29.351,0,0,0-5.87,2.982c-.348.257-.617.561-1,.865C98.435,95.31,94.511,112.9,84.322,124.295a.7.7,0,0,1-.111.16c-.032.3,0,.464-.032.721,2.832,0,5.728.305,8.385-.257,31.31-7.021,35.266-4.328,39.332,28.055,8.86.273,8.243,7.326,9.224,13.209,6.07-2.005,11.3.532,16.52,3.068,5.133,2.494,10.261,4.987,16.183,3.168-2.2-10.4-1.724-20.488-17.878-22.171-16.312-1.7-7.784-22.668-17.15-32.783-3.876-4.153,9.683-3.174,13.607-6.845,8.8-8.257,17.988-27.349,21.706,3.046,6.3-2.934,6.25-7.486,7.2-13.306,2.009-12.216,12.419-13.8,22.846-13.5,11.344.353,11.074,7.519,10.22,16.32-.9,9.394,11.771,24.961-11.454,22.892-.6-.049-2.326,3.222-2.057,3.511,15.584,15.838-8.8,19.445-10,32.719,7.484-1.347,15.394-7.1,20.947,3-11.106,4.553-22.276,9.218-33.477,13.851q-.792.783-1.569,1.506c-9.606,1.113-19.5,1.889-29.606,2.3A58.129,58.129,0,0,1,139.253,172.179Z" transform="matrix(0.998, 0.07, -0.07, 0.998, 84.239, 676.977)" fill="#098fc4"/>
    <path id="Path_202" data-name="Path 202" d="M-7527.351-21030.518c-76.406,7.6-82.291,20.7-97.056,30.318-.189.121-17.891,23.4-18.3,23.68-.53-15.393-15.893,16.34-28.518-13.8-20.972-50.07,21.5-85.512,56.2-92.441" transform="translate(7801.195 21838.33)" fill="none" stroke="#fff" stroke-width="3" stroke-dasharray="10 10"/>
    <g id="Group_148" data-name="Group 148" transform="translate(27 -2.004)">
      <rect id="Rectangle_99" data-name="Rectangle 99" width="18" height="28" rx="1" transform="translate(154 730.003)" fill="#c9c5c6"/>
      <rect id="Rectangle_100" data-name="Rectangle 100" width="6" height="3" rx="0.5" transform="translate(156 732.003)" fill="#a09c9d"/>
      <rect id="Rectangle_102" data-name="Rectangle 102" width="6.589" height="1.647" rx="0.3" transform="translate(155.647 735.765)" fill="#a09c9d"/>
      <rect id="Rectangle_103" data-name="Rectangle 103" width="6" height="2" rx="0.3" transform="translate(156 738.003)" fill="#a09c9d"/>
      <rect id="Rectangle_109" data-name="Rectangle 109" width="6.589" height="1.647" rx="0.3" transform="translate(155.647 753.885)" fill="#a09c9d"/>
      <rect id="Rectangle_110" data-name="Rectangle 110" width="6.589" height="1.647" rx="0.3" transform="translate(163.884 753.885)" fill="#a09c9d"/>
      <rect id="Rectangle_101" data-name="Rectangle 101" width="6" height="3" rx="0.5" transform="translate(164 732.003)" fill="#a09c9d"/>
      <rect id="Rectangle_104" data-name="Rectangle 104" width="6.589" height="4.118" rx="0.5" transform="translate(163.884 735.765)" fill="#a09c9d"/>
      <rect id="Rectangle_107" data-name="Rectangle 107" width="6.589" height="4.118" rx="0.5" transform="translate(163.884 748.943)" fill="#a09c9d"/>
      <rect id="Rectangle_108" data-name="Rectangle 108" width="6.589" height="4.118" rx="0.5" transform="translate(155.647 748.943)" fill="#a09c9d"/>
      <rect id="Rectangle_105" data-name="Rectangle 105" width="6.589" height="7.413" rx="0.5" transform="translate(163.884 740.707)" fill="#189ad8"/>
      <rect id="Rectangle_106" data-name="Rectangle 106" width="6.589" height="7.413" rx="0.5" transform="translate(155.647 740.707)" fill="#a09c9d"/>
    </g>
    <g id="maps-and-flags" transform="translate(175.409 742)">
      <g id="Group_9" data-name="Group 9">
        <path id="Path_34" data-name="Path 34" d="M76.164,0a5.6,5.6,0,0,0-5.591,5.591c0,3.826,5,9.443,5.217,9.68a.5.5,0,0,0,.749,0c.213-.237,5.217-5.854,5.217-9.68A5.6,5.6,0,0,0,76.164,0Zm0,8.4a2.813,2.813,0,1,1,2.813-2.813A2.816,2.816,0,0,1,76.164,8.4Z" transform="translate(-70.573 0)" fill="#fff"/>
      </g>
    </g>
    <g id="Group_149" data-name="Group 149" transform="translate(-3462.232 -1395.172)">
      <path id="Path_205" data-name="Path 205" d="M-5822.047-21964.816a17.664,17.664,0,0,1,0-5.8c.589-2.189,2.851-3.75,3.032-2.3.061.484-.568,1.6-.625,3s.705,1.473.274,2.822c-.238.746-1.251,1.23-1.75,1.875s-.347.406-.347.406Z" transform="translate(9424.358 24193.949)" fill="#76cff4"/>
      <path id="Path_203" data-name="Path 203" d="M-5897.052-22005.727h-.663s-.223-.937-.759-2.469c-.164-.469-.419-.959-.6-1.492-.177-.514-.252-1.055-.47-1.605-.285-.717-.82-1.4-1-2.062-.434-1.633-.3-2.934.111-3.043.6-.16,2.7.578,3.38,3.207a8.672,8.672,0,0,1,.74,2.664,14.3,14.3,0,0,1-.476,2.531A20.69,20.69,0,0,0-5897.052-22005.727Z" transform="translate(9499.444 24234.566)" fill="#4bbce8" stroke="#4bbce8" stroke-width="1"/>
      <path id="Path_204" data-name="Path 204" d="M-5936.951-21935.547h-.705a1.411,1.411,0,0,0-.369-1.045c-.615-.637-1.973-.873-2.592-1.986a10.42,10.42,0,0,1-1.212-4.469,23.627,23.627,0,0,1,4.49,4.469,2.768,2.768,0,0,1,.271,1.986A5.07,5.07,0,0,0-5936.951-21935.547Z" transform="translate(9539 24164.672)" fill="#3d9fc6"/>
    </g>
    <g id="Group_150" data-name="Group 150" transform="translate(-3500.232 -1483.172)">
      <path id="Path_205-2" data-name="Path 205" d="M-5822.047-21964.816a17.664,17.664,0,0,1,0-5.8c.589-2.189,2.851-3.75,3.032-2.3.061.484-.568,1.6-.625,3s.705,1.473.274,2.822c-.238.746-1.251,1.23-1.75,1.875s-.347.406-.347.406Z" transform="translate(9424.358 24193.949)" fill="#76cff4"/>
      <path id="Path_203-2" data-name="Path 203" d="M-5897.052-22005.727h-.663s-.223-.937-.759-2.469c-.164-.469-.419-.959-.6-1.492-.177-.514-.252-1.055-.47-1.605-.285-.717-.82-1.4-1-2.062-.434-1.633-.3-2.934.111-3.043.6-.16,2.7.578,3.38,3.207a8.672,8.672,0,0,1,.74,2.664,14.3,14.3,0,0,1-.476,2.531A20.69,20.69,0,0,0-5897.052-22005.727Z" transform="translate(9499.444 24234.566)" fill="#4bbce8" stroke="#4bbce8" stroke-width="1"/>
      <path id="Path_204-2" data-name="Path 204" d="M-5936.951-21935.547h-.705a1.411,1.411,0,0,0-.369-1.045c-.615-.637-1.973-.873-2.592-1.986a10.42,10.42,0,0,1-1.212-4.469,23.627,23.627,0,0,1,4.49,4.469,2.768,2.768,0,0,1,.271,1.986A5.07,5.07,0,0,0-5936.951-21935.547Z" transform="translate(9539 24164.672)" fill="#3d9fc6"/>
    </g>
    <g id="Group_158" data-name="Group 158" transform="translate(252.643 790.467)">
      <g id="Group_156" data-name="Group 156" transform="translate(0 0.001)">
        <rect id="Rectangle_115" data-name="Rectangle 115" width="0.607" height="1.213" transform="translate(36.465 10.919)" fill="#4abbe8"/>
        <rect id="Rectangle_114" data-name="Rectangle 114" width="18.198" height="1.82" transform="translate(9.775 14.559)" fill="#1c1b21"/>
        <ellipse id="Ellipse_53" data-name="Ellipse 53" cx="2.426" cy="3.033" rx="2.426" ry="3.033" transform="translate(4.922 12.133)" fill="#3f3d40"/>
        <path id="Path_208" data-name="Path 208" d="M-6124.283-21587.789v-15.723s-7.136-.02-13.427,0c-3.352.016-4.154,1.367-6.06,3.969-.112.188-.48.723-.613.93-.27.43-.569.9-.869,1.367-.543.859-1.159,1.734-1.7,2.535-.618.922-1.459,2.188-1.459,2.188v4.734h24.125Z" transform="translate(6148.408 21603.52)" fill="#005f84"/>
        <rect id="Rectangle_111" data-name="Rectangle 111" width="12.132" height="4.853" transform="translate(0.069 10.919)" fill="#107cb1"/>
        <path id="Path_206" data-name="Path 206" d="M-6124.283-21587.789v-15.723s-7.136-.02-13.427,0c-3.352.016-4.413,1.723-6.317,4.32-.994,1.359-1.969,3.063-2.922,4.48-.618.922-1.459,2.188-1.459,2.188v4.734h24.125Z" transform="translate(6160.561 21603.52)" fill="#01a1d8"/>
        <g id="Group_151" data-name="Group 151" transform="translate(1.882 4.127)">
          <path id="Path_210" data-name="Path 210" d="M-5787.336-21527.266l12.121-.016-2.453,3.988-12.314.1Z" transform="translate(5789.982 21527.281)" fill="#5eb5d8"/>
          <path id="Path_209" data-name="Path 209" d="M-5862.062-21527.281v4.033l-6.9-.051,2.572-3.979Z" transform="translate(5881.155 21527.281)" fill="#ebf8ff"/>
        </g>
        <g id="Group_154" data-name="Group 154" transform="translate(26.599 11.183)">
          <g id="Group_152" data-name="Group 152" transform="translate(0 0)">
            <path id="Subtraction_1" data-name="Subtraction 1" d="M8.421,0H0V.031A4.765,4.765,0,0,0,.331,1.788a4.623,4.623,0,0,0,.388.767,4.49,4.49,0,0,0,.514.668,4.309,4.309,0,0,0,.623.551,4.127,4.127,0,0,0,.715.416,3.963,3.963,0,0,0,3.278,0,4.126,4.126,0,0,0,.715-.416,4.308,4.308,0,0,0,.623-.551A4.494,4.494,0,0,0,7.7,2.554a4.615,4.615,0,0,0,.388-.767A4.764,4.764,0,0,0,8.421.031c0-.01,0-.019,0-.029h0Z" transform="translate(8.421 4.544) rotate(180)" fill="#0796ca"/>
            <path id="Subtraction_2" data-name="Subtraction 2" d="M6.892,0H0V.027A4.336,4.336,0,0,0,.271,1.548a4.084,4.084,0,0,0,.318.664,3.874,3.874,0,0,0,.421.579,3.608,3.608,0,0,0,.51.477,3.346,3.346,0,0,0,.585.36,3.084,3.084,0,0,0,2.683,0,3.345,3.345,0,0,0,.585-.36,3.6,3.6,0,0,0,.51-.477A3.874,3.874,0,0,0,6.3,2.211a4.084,4.084,0,0,0,.318-.664A4.339,4.339,0,0,0,6.892.027c0-.008,0-.017,0-.025h0Z" transform="translate(7.65 4.544) rotate(180)" fill="#157aa2"/>
          </g>
          <ellipse id="Ellipse_51" data-name="Ellipse 51" cx="2.743" cy="2.965" rx="2.743" ry="2.965" transform="translate(1.495 1.108)" fill="#3f3d40"/>
          <ellipse id="Ellipse_54" data-name="Ellipse 54" cx="0.997" cy="1.108" rx="0.997" ry="1.108" transform="translate(3.213 2.993)" fill="#59575a"/>
        </g>
        <g id="Group_155" data-name="Group 155" transform="translate(14.519 11.183)">
          <g id="Group_152-2" data-name="Group 152" transform="translate(0 0)">
            <path id="Subtraction_1-2" data-name="Subtraction 1" d="M8.421,0H0V.031A4.765,4.765,0,0,0,.331,1.788a4.623,4.623,0,0,0,.388.767,4.49,4.49,0,0,0,.514.668,4.309,4.309,0,0,0,.623.551,4.127,4.127,0,0,0,.715.416,3.963,3.963,0,0,0,3.278,0,4.126,4.126,0,0,0,.715-.416,4.308,4.308,0,0,0,.623-.551A4.494,4.494,0,0,0,7.7,2.554a4.615,4.615,0,0,0,.388-.767A4.764,4.764,0,0,0,8.421.031c0-.01,0-.019,0-.029h0Z" transform="translate(8.421 4.544) rotate(180)" fill="#0796ca"/>
            <path id="Subtraction_2-2" data-name="Subtraction 2" d="M6.892,0H0V.027A4.336,4.336,0,0,0,.271,1.548a4.084,4.084,0,0,0,.318.664,3.874,3.874,0,0,0,.421.579,3.608,3.608,0,0,0,.51.477,3.346,3.346,0,0,0,.585.36,3.084,3.084,0,0,0,2.683,0,3.345,3.345,0,0,0,.585-.36,3.6,3.6,0,0,0,.51-.477A3.874,3.874,0,0,0,6.3,2.211a4.084,4.084,0,0,0,.318-.664A4.339,4.339,0,0,0,6.892.027c0-.008,0-.017,0-.025h0Z" transform="translate(7.65 4.544) rotate(180)" fill="#157aa2"/>
          </g>
          <ellipse id="Ellipse_51-2" data-name="Ellipse 51" cx="2.743" cy="2.965" rx="2.743" ry="2.965" transform="translate(1.495 1.108)" fill="#3f3d40"/>
          <ellipse id="Ellipse_54-2" data-name="Ellipse 54" cx="0.997" cy="1.108" rx="0.997" ry="1.108" transform="translate(3.213 2.993)" fill="#59575a"/>
        </g>
      </g>
      <g id="Group_157" data-name="Group 157" transform="translate(25.687 3.809)">
        <path id="Path_213" data-name="Path 213" d="M2.668,0A2.564,2.564,0,0,0,0,2.446,2.564,2.564,0,0,0,2.668,4.892,2.564,2.564,0,0,0,5.337,2.446,2.564,2.564,0,0,0,2.668,0Z" transform="translate(0 0)" fill="#fff"/>
        <rect id="Rectangle_117" data-name="Rectangle 117" width="2.446" height="2.446" rx="0.3" transform="translate(1.438 1.223)" fill="#01a1d8"/>
      </g>
    </g>
    <path id="Path_214" data-name="Path 214" d="M0,0H3.065V3H0Z" transform="translate(192.747 741)" fill="#fff"/>
  </g>
</svg>
