<svg xmlns="http://www.w3.org/2000/svg" xmlns:xlink="http://www.w3.org/1999/xlink" width="205.805" height="230.223" viewBox="0 0 205.805 230.223">
  <defs>
    <clipPath id="clip-path">
      <rect y="10" width="26" height="15" fill="none"/>
    </clipPath>
    <clipPath id="clip-path-2">
      <rect x="1" y="1" width="23.976" height="14.682" fill="none"/>
    </clipPath>
  </defs>
  <g id="Group_93" data-name="Group 93" transform="translate(-108.598 -465.18)">
    <ellipse id="Ellipse_29" data-name="Ellipse 29" cx="100.5" cy="6.5" rx="100.5" ry="6.5" transform="translate(111 680)" fill="#d3e7fa"/>
    <g id="Group_89" data-name="Group 89" transform="matrix(0.995, 0.105, -0.105, 0.995, 63.869, -58.809)">
      <g id="Group_58" data-name="Group 58">
        <g id="Group_57" data-name="Group 57" transform="translate(28 -45)">
          <g id="box_1_" data-name="box (1)" transform="translate(-40 502)">
            <g id="Group_46" data-name="Group 46" transform="translate(159.121 188.307)">
              <g id="Group_45" data-name="Group 45" transform="translate(0)">
                <path id="Path_61" data-name="Path 61" d="M202.461,336H179.78a3.78,3.78,0,0,0-3.78,3.78v18.9a3.78,3.78,0,0,0,3.78,3.78h22.681a3.78,3.78,0,0,0,3.78-3.78v-18.9A3.78,3.78,0,0,0,202.461,336Zm-3.78,18.9H183.56V343.56h15.121Z" transform="translate(-176 -336)" fill="#00a0d5"/>
              </g>
            </g>
            <g id="Group_48" data-name="Group 48" transform="translate(257.43 191.529)">
              <g id="Group_47" data-name="Group 47" transform="translate(0 0)">
                <rect id="Rectangle_31" data-name="Rectangle 31" width="8" height="8" transform="translate(-0.43 0.472)" fill="#00a0d5"/>
              </g>
            </g>
            <g id="Group_50" data-name="Group 50" transform="translate(272.163 191.529)">
              <g id="Group_49" data-name="Group 49" transform="translate(0 0)">
                <rect id="Rectangle_32" data-name="Rectangle 32" width="16" height="8" transform="translate(-0.164 0.472)" fill="#00a0d5"/>
              </g>
            </g>
            <g id="Group_52" data-name="Group 52" transform="translate(257.43 206.26)">
              <g id="Group_51" data-name="Group 51" transform="translate(0 0)">
                <rect id="Rectangle_33" data-name="Rectangle 33" width="31" height="9" transform="translate(-0.43 -0.26)" fill="#00a0d5"/>
              </g>
            </g>
            <g id="Group_54" data-name="Group 54" transform="translate(144 56)">
              <g id="Group_53" data-name="Group 53">
                <path id="Path_62" data-name="Path 62" d="M302.741,89.886a3.762,3.762,0,0,0-.234-1.164c-.034-.083-.053-.17-.091-.25s-.023-.094-.045-.14L287.25,58.09A3.781,3.781,0,0,0,283.867,56H162.9a3.781,3.781,0,0,0-3.383,2.09L144.4,88.332c-.023.045-.026.095-.049.14s-.053.166-.087.25a3.762,3.762,0,0,0-.234,1.164c0,.045-.026.087-.026.136V226.108a3.78,3.78,0,0,0,3.78,3.78H298.988a3.78,3.78,0,0,0,3.78-3.78V90.022C302.768,89.973,302.741,89.935,302.741,89.886ZM281.531,63.56l11.341,22.681H241.839L239,63.56Zm-66.15,0h16.005l2.835,22.681H212.546ZM212.043,93.8h22.681v45.362H212.043ZM165.233,63.56H207.76l-2.835,22.681H153.893ZM295.208,222.328H151.56V93.8h52.923v49.142a3.78,3.78,0,0,0,3.78,3.78H238.5a3.78,3.78,0,0,0,3.78-3.78V93.8h52.923Z" transform="translate(-144 -56)" fill="#00a0d5"/>
              </g>
            </g>
          </g>
          <ellipse id="Ellipse_24" data-name="Ellipse 24" cx="8.5" cy="5" rx="8.5" ry="5" transform="translate(147.383 670)" fill="#d3e7fa"/>
          <ellipse id="Ellipse_25" data-name="Ellipse 25" cx="8.5" cy="5" rx="8.5" ry="5" transform="translate(202.383 670)" fill="#d3e7fa"/>
          <g id="Ellipse_27" data-name="Ellipse 27" transform="translate(146.175 669.125) rotate(-74)" fill="none" stroke="#00a0d5" stroke-linecap="round" stroke-width="5" stroke-dasharray="20 70">
            <circle cx="7.848" cy="7.848" r="7.848" stroke="none"/>
            <circle cx="7.848" cy="7.848" r="5.348" fill="none"/>
          </g>
          <g id="Ellipse_28" data-name="Ellipse 28" transform="matrix(0.309, -0.951, 0.951, 0.309, 200.993, 668.783)" fill="none" stroke="#00a0d5" stroke-linecap="round" stroke-width="5" stroke-dasharray="20 70">
            <circle cx="7.848" cy="7.848" r="7.848" stroke="none"/>
            <circle cx="7.848" cy="7.848" r="5.348" fill="none"/>
          </g>
        </g>
      </g>
      <g id="Scroll_Group_1" data-name="Scroll Group 1" transform="translate(198 614)" clip-path="url(#clip-path)" style="isolation: isolate">
        <g id="Ellipse_26" data-name="Ellipse 26" transform="translate(0 -2)" fill="none" stroke="#00a0d5" stroke-width="3.5" stroke-dasharray="160 0">
          <ellipse cx="13" cy="13.5" rx="13" ry="13.5" stroke="none"/>
          <ellipse cx="13" cy="13.5" rx="11.25" ry="11.75" fill="none"/>
        </g>
        <g id="Scroll_Group_2" data-name="Scroll Group 2" transform="translate(0.012 -2)" clip-path="url(#clip-path-2)" style="isolation: isolate">
          <g id="Path_63" data-name="Path 63" fill="#fff">
            <path d="M 24.22637557983398 12.93185806274414 L 16.2352352142334 12.93185806274414 L 1.749995827674866 12.93185806274414 L 1.749995827674866 1.749997615814209 L 24.22637557983398 1.749997615814209 L 24.22637557983398 12.93185806274414 Z" stroke="none"/>
            <path d="M 3.499996185302734 3.499997138977051 L 3.499996185302734 11.18185806274414 L 16.23523712158203 11.18185806274414 L 22.47637557983398 11.18185806274414 L 22.47637557983398 3.499997138977051 L 3.499996185302734 3.499997138977051 M -3.814697265625e-06 -2.86102294921875e-06 L 25.97637557983398 -2.86102294921875e-06 L 25.97637557983398 14.68185806274414 L 16.23523712158203 14.68185806274414 L -3.814697265625e-06 14.68185806274414 L -3.814697265625e-06 -2.86102294921875e-06 Z" stroke="none" fill="#00a0d5"/>
          </g>
        </g>
      </g>
    </g>
  </g>
</svg>
