<svg xmlns="http://www.w3.org/2000/svg" width="205.805" height="182.402" viewBox="0 0 205.805 182.402">
  <g id="Group_85" data-name="Group 85" transform="translate(-105.598 -279)">
    <ellipse id="Ellipse_30" data-name="Ellipse 30" cx="100.5" cy="6.5" rx="100.5" ry="6.5" transform="translate(108 446)" fill="#d3e7fa"/>
    <g id="Group_56" data-name="Group 56" transform="translate(25 -279)">
      <g id="box_1_" data-name="box (1)" transform="translate(-40 502)">
        <g id="Group_46" data-name="Group 46" transform="translate(159.121 188.307)">
          <g id="Group_45" data-name="Group 45" transform="translate(0)">
            <path id="Path_61" data-name="Path 61" d="M202.461,336H179.78a3.78,3.78,0,0,0-3.78,3.78v18.9a3.78,3.78,0,0,0,3.78,3.78h22.681a3.78,3.78,0,0,0,3.78-3.78v-18.9A3.78,3.78,0,0,0,202.461,336Zm-3.78,18.9H183.56V343.56h15.121Z" transform="translate(-176 -336)" fill="#00a0d5"/>
          </g>
        </g>
        <g id="Group_48" data-name="Group 48" transform="translate(257.43 191.529)">
          <g id="Group_47" data-name="Group 47" transform="translate(0 0)">
            <rect id="Rectangle_31" data-name="Rectangle 31" width="8" height="8" transform="translate(-0.43 0.472)" fill="#00a0d5"/>
          </g>
        </g>
        <g id="Group_50" data-name="Group 50" transform="translate(272.163 191.529)">
          <g id="Group_49" data-name="Group 49" transform="translate(0 0)">
            <rect id="Rectangle_32" data-name="Rectangle 32" width="16" height="8" transform="translate(-0.164 0.472)" fill="#00a0d5"/>
          </g>
        </g>
        <g id="Group_52" data-name="Group 52" transform="translate(257.43 206.26)">
          <g id="Group_51" data-name="Group 51" transform="translate(0 0)">
            <rect id="Rectangle_33" data-name="Rectangle 33" width="31" height="9" transform="translate(-0.43 -0.26)" fill="#00a0d5"/>
          </g>
        </g>
        <g id="Group_54" data-name="Group 54" transform="translate(144 56)">
          <g id="Group_53" data-name="Group 53">
            <path id="Path_62" data-name="Path 62" d="M302.741,89.886a3.762,3.762,0,0,0-.234-1.164c-.034-.083-.053-.17-.091-.25s-.023-.094-.045-.14L287.25,58.09A3.781,3.781,0,0,0,283.867,56H162.9a3.781,3.781,0,0,0-3.383,2.09L144.4,88.332c-.023.045-.026.095-.049.14s-.053.166-.087.25a3.762,3.762,0,0,0-.234,1.164c0,.045-.026.087-.026.136V226.108a3.78,3.78,0,0,0,3.78,3.78H298.988a3.78,3.78,0,0,0,3.78-3.78V90.022C302.768,89.973,302.741,89.935,302.741,89.886ZM281.531,63.56l11.341,22.681H241.839L239,63.56Zm-66.15,0h16.005l2.835,22.681H212.546ZM212.043,93.8h22.681v45.362H212.043ZM165.233,63.56H207.76l-2.835,22.681H153.893ZM295.208,222.328H151.56V93.8h52.923v49.142a3.78,3.78,0,0,0,3.78,3.78H238.5a3.78,3.78,0,0,0,3.78-3.78V93.8h52.923Z" transform="translate(-144 -56)" fill="#00a0d5"/>
          </g>
        </g>
      </g>
      <ellipse id="Ellipse_24" data-name="Ellipse 24" cx="8.5" cy="5" rx="8.5" ry="5" transform="translate(147.383 670)" fill="#d3e7fa"/>
      <ellipse id="Ellipse_25" data-name="Ellipse 25" cx="8.5" cy="5" rx="8.5" ry="5" transform="translate(202.383 670)" fill="#d3e7fa"/>
    </g>
  </g>
</svg>
