<svg xmlns="http://www.w3.org/2000/svg" xmlns:xlink="http://www.w3.org/1999/xlink" width="294" height="466" viewBox="0 0 294 466">
  <defs>
    <filter id="Rectangle_125" x="0" y="0" width="294" height="466" filterUnits="userSpaceOnUse">
      <feOffset dy="3" input="SourceAlpha"/>
      <feGaussianBlur stdDeviation="3" result="blur"/>
      <feFlood flood-opacity="0.161"/>
      <feComposite operator="in" in2="blur"/>
      <feComposite in="SourceGraphic"/>
    </filter>
    <filter id="Rectangle_124" x="0" y="0" width="294" height="466" filterUnits="userSpaceOnUse">
      <feOffset dy="3" input="SourceAlpha"/>
      <feGaussianBlur stdDeviation="3" result="blur-2"/>
      <feFlood flood-opacity="0.161"/>
      <feComposite operator="in" in2="blur-2"/>
      <feComposite in="SourceGraphic"/>
    </filter>
    <clipPath id="clip-path">
      <g transform="matrix(1, 0, 0, 1, 0, 0)" filter="url(#Rectangle_125)">
        <rect id="Rectangle_125-2" data-name="Rectangle 125" width="276" height="448" rx="10" transform="translate(0.11)" fill="#fff"/>
      </g>
    </clipPath>
  </defs>
  <g id="Group_271" data-name="Group 271" transform="translate(17587 11848)">
    <g id="Group_200" data-name="Group 200" transform="translate(-17578.113 -11842)">
      <g transform="matrix(1, 0, 0, 1, -8.89, -6)" filter="url(#Rectangle_124)">
        <rect id="Rectangle_124-2" data-name="Rectangle 124" width="276" height="448" rx="10" transform="translate(9 6)" fill="#fff"/>
      </g>
      <g id="Mask_Group_14" data-name="Mask Group 14" clip-path="url(#clip-path)">
        <path id="Path_239" data-name="Path 239" d="M264.792,0C411.033,0,529.584,52.159,529.584,116.5S411.033,233,264.792,233,0,180.841,0,116.5,118.551,0,264.792,0Z" transform="translate(-126.791 -116.5)" fill="#00a3db"/>
      </g>
      <text id="Du_skal_have_mobilen_klar" data-name="Du skal have mobilen klar" transform="translate(138.113 307)" font-size="17" font-family="'Exo \32 '" font-weight="600" letter-spacing="0.03em"><tspan x="-107.185" y="0">Du skal have mobilen klar</tspan></text>
      <text id="Når_du_vil_hente_din_pakke_ved_Nærboksen_skal_du_have_bluetooth_aktiveret_på_din_mobil._" data-name="Når du vil hente din pakke ved Nærboksen
skal du have bluetooth aktiveret på
din mobil. " transform="translate(138.113 327)" font-size="11" font-family="'Exo \32 '" letter-spacing="0.03em"><tspan x="-110.473" y="0">Når du vil hente din pakke ved Nærboksen</tspan><tspan x="-93.181" y="13">skal du have bluetooth aktiveret på</tspan><tspan x="-27.148" y="26">din mobil. </tspan></text>
      <g id="Group_148" data-name="Group 148" transform="translate(66.547 173.322)">
        <rect id="Rectangle_99" data-name="Rectangle 99" width="66.648" height="103.678" rx="1" transform="translate(0 0)" fill="#c9c5c6"/>
        <rect id="Rectangle_100" data-name="Rectangle 100" width="24.397" height="11.108" rx="1" transform="translate(6.1 7.406)" fill="#a09c9d"/>
        <rect id="Rectangle_121" data-name="Rectangle 121" width="24.397" height="11.108" rx="1" transform="translate(36.596 7.178)" fill="#a09c9d"/>
        <rect id="Rectangle_103" data-name="Rectangle 103" width="24.397" height="6.528" rx="1" transform="translate(6.1 30.057)" fill="#a09c9d"/>
        <rect id="Rectangle_122" data-name="Rectangle 122" width="24.397" height="6.528" rx="1" transform="translate(6.1 21.335)" fill="#a09c9d"/>
        <rect id="Rectangle_109" data-name="Rectangle 109" width="24.397" height="6.099" rx="1" transform="translate(6.099 88.429)" fill="#a09c9d"/>
        <rect id="Rectangle_110" data-name="Rectangle 110" width="24.397" height="6.099" rx="1" transform="translate(36.596 88.429)" fill="#a09c9d"/>
        <rect id="Rectangle_104" data-name="Rectangle 104" width="24.397" height="15.249" rx="1" transform="translate(36.596 21.335)" fill="#a09c9d"/>
        <rect id="Rectangle_107" data-name="Rectangle 107" width="24.397" height="15.249" rx="1" transform="translate(36.596 70.131)" fill="#a09c9d"/>
        <rect id="Rectangle_108" data-name="Rectangle 108" width="24.397" height="15.249" rx="1" transform="translate(6.099 70.131)" fill="#a09c9d"/>
        <rect id="Rectangle_106" data-name="Rectangle 106" width="24.397" height="27.447" rx="1" transform="translate(6.099 39.634)" fill="#a09c9d"/>
        <rect id="Rectangle_126" data-name="Rectangle 126" width="24.397" height="27.447" rx="1" transform="translate(36.593 39.635)" fill="#464646"/>
      </g>
    </g>
    <g id="Group_202" data-name="Group 202" transform="translate(-17470.33 -11610.6)">
      <rect id="Rectangle_127" data-name="Rectangle 127" width="16" height="9" rx="0.5" fill="#eab14d"/>
      <path id="Path_259" data-name="Path 259" d="M381.63,366.333h-1.169a.278.278,0,0,1-.278-.278v-2.382h1.725v2.382A.278.278,0,0,1,381.63,366.333Z" transform="translate(-373.184 -363.673)" fill="#898d95"/>
    </g>
    <g id="bluetooth" transform="translate(-17524.574 -11694.317)">
      <path id="Path_260" data-name="Path 260" d="M98.932,0h0a13.36,13.36,0,0,0-13.36,13.36V26.777a13.36,13.36,0,0,0,13.36,13.36h0a13.36,13.36,0,0,0,13.36-13.36V13.36A13.36,13.36,0,0,0,98.932,0Z" transform="translate(-85.572)" fill="#1f84ce"/>
      <path id="Path_261" data-name="Path 261" d="M168.523,106.424l5.4-5.608a1.3,1.3,0,0,0,0-1.806L167.654,92.5a1.3,1.3,0,0,0-2.239.9v9.8l-4.079-4.234a1.3,1.3,0,1,0-1.874,1.806l5.448,5.655-5.448,5.655a1.3,1.3,0,1,0,1.874,1.806l4.079-4.234v9.8a1.3,1.3,0,0,0,2.239.9l6.273-6.511a1.3,1.3,0,0,0,0-1.806Zm-.506-9.8,3.164,3.285-3.164,3.285V96.628Zm0,19.591V109.65l3.164,3.285Z" transform="translate(-153.334 -84.88)" fill="#145587" opacity="0.3"/>
      <path id="Path_262" data-name="Path 262" d="M168.523,87.611l5.4-5.608a1.3,1.3,0,0,0,0-1.806l-6.273-6.511a1.3,1.3,0,0,0-2.239.9v9.8l-4.079-4.234a1.3,1.3,0,1,0-1.874,1.806l5.448,5.655-5.448,5.655a1.3,1.3,0,0,0,1.874,1.806l4.079-4.234v9.8a1.3,1.3,0,0,0,2.239.9l6.273-6.511a1.3,1.3,0,0,0,0-1.806Zm-.506-9.8,3.164,3.285-3.164,3.285V77.815Zm0,19.591V90.837l3.164,3.285Z" transform="translate(-153.334 -67.542)" fill="#fff"/>
    </g>
    <g id="Group_204" data-name="Group 204" transform="translate(-17429.635 -11641.722)">
      <g id="smartphone_1_" data-name="smartphone (1)" transform="translate(0 19.956)">
        <path id="Path_277" data-name="Path 277" d="M119.354,0h-4.186a.409.409,0,0,0-.409.409V8.661a.409.409,0,0,0,.409.409h4.186a.409.409,0,0,0,.409-.409V.409A.409.409,0,0,0,119.354,0Z" transform="translate(-114.759)" fill="#2c353f"/>
        <rect id="Rectangle_128" data-name="Rectangle 128" width="5.004" height="6.568" transform="translate(0 0.938)" fill="#659ed8"/>
        <g id="Group_203" data-name="Group 203" transform="translate(1.564 0.313)">
          <path id="Path_278" data-name="Path 278" d="M204.754,17.967H203.19a.156.156,0,1,1,0-.313h1.564a.156.156,0,0,1,0,.313Z" transform="translate(-203.034 -17.654)" fill="#c4ced3"/>
          <path id="Path_279" data-name="Path 279" d="M344.588,17.967h-.156a.156.156,0,1,1,0-.313h.156a.156.156,0,1,1,0,.313Z" transform="translate(-341.773 -17.654)" fill="#c4ced3"/>
          <path id="Path_280" data-name="Path 280" d="M230.18,450.831h-.388a.275.275,0,0,1-.275-.275v-.076a.275.275,0,0,1,.275-.275h.388a.275.275,0,0,1,.275.275v.076A.275.275,0,0,1,230.18,450.831Z" transform="translate(-229.048 -442.543)" fill="#c4ced3"/>
        </g>
      </g>
      <g id="mailman">
        <path id="Path_264" data-name="Path 264" d="M151.191,32l.054.42,1.272,7.7h7.523V32Zm0,0" transform="translate(-122.402 -24.899)" fill="#eecfb1"/>
        <path id="Path_266" data-name="Path 266" d="M250.842,153.594a2.642,2.642,0,0,0,1.881,3.071,27.872,27.872,0,0,0,18.86-1.569l-2.422-4.858a22.471,22.471,0,0,1-14.951,1.231,2.654,2.654,0,0,0-3.341,1.989Zm0,0" transform="translate(-250.789 -123.14)" fill="#eecfb1"/>
        <path id="Path_267" data-name="Path 267" d="M2.663,128.078.241,132.909a17.652,17.652,0,0,1,9.025,13.07A2.706,2.706,0,0,0,11.9,148.36h.108a2.664,2.664,0,0,0,2.625-3.031A23.042,23.042,0,0,0,2.663,128.078Zm0,0" transform="translate(48.505 -104.728)" fill="#eecfb1"/>
        <path id="Path_268" data-name="Path 268" d="M215.191,120.927l2.422,4.858a28.249,28.249,0,0,0,6.02-3.8v-7.022A5.565,5.565,0,0,0,222,116.124,22.064,22.064,0,0,1,215.191,120.927Zm0,0" transform="translate(-196.819 -93.829)" fill="#de8d27"/>
        <path id="Path_269" data-name="Path 269" d="M71.191,112.5v25.206l.1.284a27.644,27.644,0,0,1,9.376-1.637h4.059V117.412a17.452,17.452,0,0,1,3.382.325l3.586,1.122a14.079,14.079,0,0,1,1.434.69l2.422-4.831A22.81,22.81,0,0,0,84.721,112H73.438A5.332,5.332,0,0,0,71.191,112.5Zm0,0" transform="translate(-44.377 -91.369)" fill="#f29a2b"/>
        <path id="Path_270" data-name="Path 270" d="M160.911,261.493q.947-.081,1.948-.081h2.706a6.61,6.61,0,0,0,1.15-2.408v-.014a16.779,16.779,0,0,0,.2-2.612V256h-4.059a27.668,27.668,0,0,0-27.668,27.655,28.279,28.279,0,0,0,.541,5.466,2.706,2.706,0,0,0,2.652,2.138,2.906,2.906,0,0,0,.825-.122,2.731,2.731,0,0,0,1.813-3.153,23.119,23.119,0,0,1-.419-4.33A22.3,22.3,0,0,1,160.911,261.493Zm0,0" transform="translate(-126.574 -211.015)" fill="#4e4e4e"/>
        <path id="Path_271" data-name="Path 271" d="M7.19,276.251c.014.879.081,1.759.176,2.625a27.7,27.7,0,0,0,24.557,24.341,2.7,2.7,0,0,0,2.922-2.72v-.067a2.637,2.637,0,0,0-2.395-2.6A22.283,22.283,0,0,1,12.589,275.71a15.547,15.547,0,0,0,.406-1.948,6.61,6.61,0,0,1-1.15,2.408H9.138Q8.151,276.17,7.19,276.251Zm0,0" transform="translate(27.147 -225.773)" fill="#4e4e4e"/>
        <path id="Path_274" data-name="Path 274" d="M19.5,4.083" transform="translate(18.135 3.018)" fill="none" stroke="#707070" stroke-width="1"/>
        <path id="Path_276" data-name="Path 276" d="M24.481-8.247l-2.5-7.1,4.139,3.494.406-2.226,3.182,2.226.676-2.226,2.2,3.092.72,2.742Z" transform="translate(4.329 15.349)" fill="#744a00"/>
      </g>
    </g>
  </g>
</svg>
