<svg xmlns="http://www.w3.org/2000/svg" xmlns:xlink="http://www.w3.org/1999/xlink" width="294" height="466" viewBox="0 0 294 466">
  <defs>
    <filter id="Rectangle_125" x="0" y="0" width="294" height="466" filterUnits="userSpaceOnUse">
      <feOffset dy="3" input="SourceAlpha"/>
      <feGaussianBlur stdDeviation="3" result="blur"/>
      <feFlood flood-opacity="0.161"/>
      <feComposite operator="in" in2="blur"/>
      <feComposite in="SourceGraphic"/>
    </filter>
    <filter id="Rectangle_124" x="0" y="0" width="294" height="466" filterUnits="userSpaceOnUse">
      <feOffset dy="3" input="SourceAlpha"/>
      <feGaussianBlur stdDeviation="3" result="blur-2"/>
      <feFlood flood-opacity="0.161"/>
      <feComposite operator="in" in2="blur-2"/>
      <feComposite in="SourceGraphic"/>
    </filter>
    <clipPath id="clip-path">
      <g transform="matrix(1, 0, 0, 1, 0, 0)" filter="url(#Rectangle_125)">
        <rect id="Rectangle_125-2" data-name="Rectangle 125" width="276" height="448" rx="10" fill="#fff"/>
      </g>
    </clipPath>
  </defs>
  <g id="Group_199" data-name="Group 199" transform="translate(9 6)">
    <g transform="matrix(1, 0, 0, 1, -9, -6)" filter="url(#Rectangle_124)">
      <rect id="Rectangle_124-2" data-name="Rectangle 124" width="276" height="448" rx="10" transform="translate(9 6)" fill="#fff"/>
    </g>
    <g id="Mask_Group_14" data-name="Mask Group 14" clip-path="url(#clip-path)">
      <path id="Path_239" data-name="Path 239" d="M264.792,0C411.033,0,529.584,52.159,529.584,116.5S411.033,233,264.792,233,0,180.841,0,116.5,118.551,0,264.792,0Z" transform="translate(-126.791 -116.5)" fill="#00a3db"/>
    </g>
    <text id="Velkommen_til_Nærboks" data-name="Velkommen til Nærboks" transform="translate(138 307)" font-size="17" font-family="'Exo \32 '" font-weight="600" letter-spacing="0.03em"><tspan x="-99.127" y="0">Velkommen til Nærboks</tspan></text>
    <text id="Du_vil_via_denne_app_kunne_hente_og_sende_pakker_når_du_befinder_dig_ved_en_Nærboks._" data-name="Du vil via denne app kunne hente 
og sende pakker, når du befinder
dig ved en Nærboks.   " transform="translate(138 327)" font-size="11" font-family="'Exo \32 '" letter-spacing="0.03em"><tspan x="-88.006" y="0">Du vil via denne app kunne hente </tspan><tspan x="-85.97" y="13">og sende pakker, når du befinder</tspan><tspan x="-57.409" y="26" xml:space="preserve">dig ved en Nærboks.   </tspan></text>
    <g id="Group_148" data-name="Group 148" transform="translate(195.73 212.801)">
      <rect id="Rectangle_99" data-name="Rectangle 99" width="41.27" height="64.199" rx="1" fill="#c9c5c6"/>
      <rect id="Rectangle_100" data-name="Rectangle 100" width="15.107" height="6.878" rx="1" transform="translate(3.777 4.586)" fill="#a09c9d"/>
      <rect id="Rectangle_121" data-name="Rectangle 121" width="15.107" height="6.878" rx="1" transform="translate(22.662 4.445)" fill="#a09c9d"/>
      <rect id="Rectangle_103" data-name="Rectangle 103" width="15.107" height="4.042" rx="1" transform="translate(3.777 18.611)" fill="#a09c9d"/>
      <rect id="Rectangle_122" data-name="Rectangle 122" width="15.107" height="4.042" rx="1" transform="translate(3.777 13.211)" fill="#a09c9d"/>
      <rect id="Rectangle_109" data-name="Rectangle 109" width="15.107" height="3.777" rx="1" transform="translate(3.777 54.756)" fill="#a09c9d"/>
      <rect id="Rectangle_110" data-name="Rectangle 110" width="15.107" height="3.777" rx="1" transform="translate(22.661 54.756)" fill="#a09c9d"/>
      <rect id="Rectangle_104" data-name="Rectangle 104" width="15.107" height="9.442" rx="1" transform="translate(22.661 13.211)" fill="#a09c9d"/>
      <rect id="Rectangle_107" data-name="Rectangle 107" width="15.107" height="9.442" rx="1" transform="translate(22.661 43.426)" fill="#a09c9d"/>
      <rect id="Rectangle_108" data-name="Rectangle 108" width="15.107" height="9.442" rx="1" transform="translate(3.777 43.426)" fill="#a09c9d"/>
      <rect id="Rectangle_105" data-name="Rectangle 105" width="15.107" height="16.996" rx="1" transform="translate(22.661 24.542)" fill="#189ad8"/>
      <rect id="Rectangle_106" data-name="Rectangle 106" width="15.107" height="16.996" rx="1" transform="translate(3.777 24.542)" fill="#a09c9d"/>
    </g>
    <g id="Group_197" data-name="Group 197" transform="translate(25.311 219.311)">
      <g id="packages" transform="translate(98.664 14.055)">
        <path id="Path_240" data-name="Path 240" d="M106.741,12.24H97.258V.553A.354.354,0,0,1,97.612.2h8.774a.354.354,0,0,1,.354.354V12.24Z" transform="translate(-91.244 -0.199)" fill="#eab14d"/>
        <path id="Path_241" data-name="Path 241" d="M232.884.2V12.239h1.1V.552A.354.354,0,0,0,233.626.2h-.742Z" transform="translate(-218.484 -0.198)" fill="#e49542"/>
        <path id="Path_242" data-name="Path 242" d="M161.115,2.926h-1.2a.285.285,0,0,1-.285-.285V.2H161.4V2.641A.285.285,0,0,1,161.115,2.926Z" transform="translate(-149.761 -0.198)" fill="#df6b57"/>
        <path id="Path_243" data-name="Path 243" d="M206.2,137.72H191.671V123.381a.553.553,0,0,1,.553-.553h13.625a.354.354,0,0,1,.354.354Z" transform="translate(-179.82 -115.245)" fill="#f1cb86"/>
        <path id="Path_244" data-name="Path 244" d="M408.957,122.828V137.72h1.1V123.182a.354.354,0,0,0-.354-.354Z" transform="translate(-383.67 -115.245)" fill="#ecbe6b"/>
        <path id="Path_245" data-name="Path 245" d="M296.357,125.556h-1.2a.285.285,0,0,1-.285-.285v-2.443h1.769v2.443A.285.285,0,0,1,296.357,125.556Z" transform="translate(-276.64 -115.245)" fill="#365e7d"/>
        <path id="Path_246" data-name="Path 246" d="M17.126,334.173H.453A.453.453,0,0,1,0,333.72v-10.9a.354.354,0,0,1,.354-.354h16.4a.376.376,0,0,1,.376.376Z" transform="translate(0 -302.539)" fill="#eab14d"/>
        <path id="Path_247" data-name="Path 247" d="M259.248,322.466v11.707h1.1V322.842a.376.376,0,0,0-.376-.376Z" transform="translate(-243.218 -302.539)" fill="#e49542"/>
        <path id="Path_248" data-name="Path 248" d="M125.667,325.194h-1.2a.285.285,0,0,1-.285-.285v-2.443h1.769v2.443A.285.285,0,0,1,125.667,325.194Z" transform="translate(-116.504 -302.539)" fill="#365e7d"/>
        <path id="Path_249" data-name="Path 249" d="M291.06,372.832H276.981v-9.159h14.178a.354.354,0,0,1,.354.354v8.352A.453.453,0,0,1,291.06,372.832Z" transform="translate(-259.855 -341.198)" fill="#eab14d"/>
        <path id="Path_250" data-name="Path 250" d="M494.267,363.673v9.159h.644a.453.453,0,0,0,.453-.453v-8.352a.354.354,0,0,0-.354-.354h-.742Z" transform="translate(-463.705 -341.198)" fill="#e49542"/>
        <path id="Path_251" data-name="Path 251" d="M381.667,366.4h-1.2a.285.285,0,0,1-.285-.285v-2.443h1.769v2.443A.285.285,0,0,1,381.667,366.4Z" transform="translate(-356.675 -341.198)" fill="#df6b57"/>
        <path id="Path_252" data-name="Path 252" d="M47.795,202.826H38.312V195.3a.354.354,0,0,1,.354-.354h9.129Z" transform="translate(-35.943 -182.899)" fill="#f1cb86"/>
        <path id="Path_253" data-name="Path 253" d="M173.938,194.941h1.1v7.885h-1.1Z" transform="translate(-163.183 -182.899)" fill="#ecbe6b"/>
        <path id="Path_254" data-name="Path 254" d="M102.168,197.669h-1.2a.285.285,0,0,1-.285-.285v-2.443h1.769v2.443A.285.285,0,0,1,102.168,197.669Z" transform="translate(-94.458 -182.899)" fill="#df6b57"/>
        <path id="Path_255" data-name="Path 255" d="M291.06,372.832H276.981v-9.159h14.178a.354.354,0,0,1,.354.354v8.352A.453.453,0,0,1,291.06,372.832Z" transform="translate(-259.855 -341.198)" fill="#eab14d"/>
        <path id="Path_256" data-name="Path 256" d="M381.667,366.4h-1.2a.285.285,0,0,1-.285-.285v-2.443h1.769v2.443A.285.285,0,0,1,381.667,366.4Z" transform="translate(-356.676 -341.198)" fill="#df6b57"/>
      </g>
      <g id="Group_158" data-name="Group 158" transform="translate(0 0)">
        <g id="Group_156" data-name="Group 156">
          <rect id="Rectangle_115" data-name="Rectangle 115" width="12.051" height="1.102" transform="translate(120.64 44.914)" fill="#4abbe8"/>
          <rect id="Rectangle_114" data-name="Rectangle 114" width="61.519" height="6.152" transform="translate(33.044 49.218)" fill="#1c1b21"/>
          <ellipse id="Ellipse_53" data-name="Ellipse 53" cx="8.203" cy="10.254" rx="8.203" ry="10.254" transform="translate(16.639 41.015)" fill="#3f3d40"/>
          <path id="Path_208" data-name="Path 208" d="M-6066.853-21550.344v-53.154s-24.123-.062-45.391,0c-11.329.055-14.043,4.623-20.483,13.42-.381.635-1.625,2.443-2.074,3.143-.911,1.453-1.924,3.037-2.938,4.619-1.835,2.91-3.918,5.865-5.738,8.572-2.089,3.115-4.931,7.4-4.931,7.4v16h81.555Z" transform="translate(6148.408 21603.525)" fill="#005f84"/>
          <rect id="Rectangle_111" data-name="Rectangle 111" width="41.013" height="16.406" transform="translate(0.234 36.914)" fill="#107cb1"/>
          <path id="Path_206" data-name="Path 206" d="M-6066.853-21550.344v-53.154s-24.123-.062-45.391,0c-11.329.055-14.917,5.828-21.355,14.607-3.361,4.6-6.655,10.357-9.878,15.146-2.089,3.115-4.931,7.4-4.931,7.4v16h81.555Z" transform="translate(6189.492 21603.525)" fill="#01a1d8"/>
          <g id="Group_151" data-name="Group 151" transform="translate(6.362 13.952)">
            <path id="Path_210" data-name="Path 210" d="M-5781.036-21527.234l40.976-.055-8.294,13.492-41.629.328Z" transform="translate(5789.983 21527.289)" fill="#5eb5d8"/>
            <path id="Path_209" data-name="Path 209" d="M-5845.644-21527.289v13.645l-23.318-.176,8.7-13.449Z" transform="translate(5910.187 21527.289)" fill="#ebf8ff"/>
          </g>
          <g id="Group_154" data-name="Group 154" transform="translate(89.921 37.805)">
            <g id="Group_152" data-name="Group 152" transform="translate(0 0)">
              <path id="Subtraction_1" data-name="Subtraction 1" d="M28.467,0H0V.1A16.107,16.107,0,0,0,1.118,6.043,15.629,15.629,0,0,0,2.431,8.635a15.18,15.18,0,0,0,1.738,2.258,14.566,14.566,0,0,0,2.107,1.863,13.952,13.952,0,0,0,2.418,1.407,13.4,13.4,0,0,0,11.081,0,13.947,13.947,0,0,0,2.418-1.407A14.563,14.563,0,0,0,24.3,10.893a15.193,15.193,0,0,0,1.738-2.258,15.6,15.6,0,0,0,1.312-2.592A16.1,16.1,0,0,0,28.467.1c0-.033,0-.065,0-.1V0h0Z" transform="translate(28.467 15.362) rotate(180)" fill="#0796ca"/>
              <path id="Subtraction_2" data-name="Subtraction 2" d="M23.3,0H0V.09A14.66,14.66,0,0,0,.916,5.233,13.805,13.805,0,0,0,1.99,7.476,13.1,13.1,0,0,0,3.412,9.432a12.2,12.2,0,0,0,1.724,1.613,11.311,11.311,0,0,0,1.979,1.218,10.424,10.424,0,0,0,9.07,0,11.307,11.307,0,0,0,1.979-1.218,12.165,12.165,0,0,0,1.724-1.613A13.1,13.1,0,0,0,21.31,7.476a13.808,13.808,0,0,0,1.074-2.243A14.668,14.668,0,0,0,23.3.09c0-.028,0-.056,0-.084V0Z" transform="translate(25.861 15.362) rotate(180)" fill="#157aa2"/>
            </g>
            <ellipse id="Ellipse_51" data-name="Ellipse 51" cx="9.273" cy="10.023" rx="9.273" ry="10.023" transform="translate(5.055 3.747)" fill="#3f3d40"/>
            <ellipse id="Ellipse_54" data-name="Ellipse 54" cx="3.372" cy="3.747" rx="3.372" ry="3.747" transform="translate(10.862 10.117)" fill="#59575a"/>
          </g>
          <g id="Group_155" data-name="Group 155" transform="translate(49.084 37.805)">
            <g id="Group_152-2" data-name="Group 152" transform="translate(0 0)">
              <path id="Subtraction_1-2" data-name="Subtraction 1" d="M28.467,0H0V.1A16.107,16.107,0,0,0,1.118,6.043,15.629,15.629,0,0,0,2.431,8.635a15.18,15.18,0,0,0,1.738,2.258,14.566,14.566,0,0,0,2.107,1.863,13.952,13.952,0,0,0,2.418,1.407,13.4,13.4,0,0,0,11.081,0,13.947,13.947,0,0,0,2.418-1.407A14.563,14.563,0,0,0,24.3,10.893a15.193,15.193,0,0,0,1.738-2.258,15.6,15.6,0,0,0,1.312-2.592A16.1,16.1,0,0,0,28.467.1c0-.033,0-.065,0-.1V0h0Z" transform="translate(28.467 15.362) rotate(180)" fill="#0796ca"/>
              <path id="Subtraction_2-2" data-name="Subtraction 2" d="M23.3,0H0V.09A14.66,14.66,0,0,0,.916,5.233,13.805,13.805,0,0,0,1.99,7.476,13.1,13.1,0,0,0,3.412,9.432a12.2,12.2,0,0,0,1.724,1.613,11.311,11.311,0,0,0,1.979,1.218,10.424,10.424,0,0,0,9.07,0,11.307,11.307,0,0,0,1.979-1.218,12.165,12.165,0,0,0,1.724-1.613A13.1,13.1,0,0,0,21.31,7.476a13.808,13.808,0,0,0,1.074-2.243A14.668,14.668,0,0,0,23.3.09c0-.028,0-.056,0-.084V0Z" transform="translate(25.861 15.362) rotate(180)" fill="#157aa2"/>
            </g>
            <ellipse id="Ellipse_51-2" data-name="Ellipse 51" cx="9.273" cy="10.023" rx="9.273" ry="10.023" transform="translate(5.055 3.747)" fill="#3f3d40"/>
            <ellipse id="Ellipse_54-2" data-name="Ellipse 54" cx="3.372" cy="3.747" rx="3.372" ry="3.747" transform="translate(10.862 10.117)" fill="#59575a"/>
          </g>
        </g>
        <g id="Group_157" data-name="Group 157" transform="translate(86.838 12.874)">
          <path id="Path_213" data-name="Path 213" d="M9.02,0C4.039,0,0,3.7,0,8.269s4.039,8.269,9.02,8.269,9.02-3.7,9.02-8.269S14,0,9.02,0Z" transform="translate(0 0)" fill="#fff"/>
          <rect id="Rectangle_117" data-name="Rectangle 117" width="8.269" height="8.269" rx="0.3" transform="translate(4.863 4.135)" fill="#01a1d8"/>
        </g>
      </g>
    </g>
    <g id="mailman" transform="translate(158 232.082)">
      <path id="Path_226" data-name="Path 226" d="M105.728,0l-.356,3.095h-5.06V2.576A2.575,2.575,0,0,1,102.888,0Zm0,0" transform="translate(-85.714 0)" fill="#01a1d8"/>
      <path id="Path_227" data-name="Path 227" d="M105.372,21.231l-.031.24-.727,4.4h-4.3V21.231Zm0,0" transform="translate(-85.714 -18.137)" fill="#eecfb1"/>
      <path id="Path_228" data-name="Path 228" d="M100.312,15.923h7.736v1.547h-7.736Zm0,0" transform="translate(-85.714 -13.603)" fill="#005f84"/>
      <path id="Path_229" data-name="Path 229" d="M178.253,101.6a1.511,1.511,0,0,1-1.075,1.756,15.938,15.938,0,0,1-10.785-.9l1.385-2.778a12.85,12.85,0,0,0,8.549.7,1.518,1.518,0,0,1,1.911,1.137Zm0,0" transform="translate(-142.164 -85.151)" fill="#eecfb1"/>
      <path id="Path_230" data-name="Path 230" d="M7.021,84.977l1.385,2.762a10.093,10.093,0,0,0-5.161,7.473,1.547,1.547,0,0,1-1.508,1.361H1.675a1.523,1.523,0,0,1-1.5-1.733A13.175,13.175,0,0,1,7.021,84.977Zm0,0" transform="translate(-0.16 -72.591)" fill="#eecfb1"/>
      <path id="Path_231" data-name="Path 231" d="M147.6,79.686l-1.385,2.778a16.153,16.153,0,0,1-3.442-2.174V76.274a3.182,3.182,0,0,1,.936.665A12.616,12.616,0,0,0,147.6,79.686Zm0,0" transform="translate(-121.988 -65.157)" fill="#01a1d8"/>
      <path id="Path_232" data-name="Path 232" d="M61.159,74.6V89.009l-.054.162a15.808,15.808,0,0,0-5.361-.936H53.423V77.4a9.979,9.979,0,0,0-1.934.186l-2.05.642a8.05,8.05,0,0,0-.82.395l-1.385-2.762a13.044,13.044,0,0,1,6.189-1.555h6.452A3.049,3.049,0,0,1,61.159,74.6Zm0,0" transform="translate(-40.373 -63.478)" fill="#01a1d8"/>
      <path id="Path_233" data-name="Path 233" d="M93.131,172.991q-.542-.046-1.114-.046H90.47a3.779,3.779,0,0,1-.658-1.377v-.008a9.59,9.59,0,0,1-.116-1.493v-.216h2.321a15.821,15.821,0,0,1,15.821,15.813,16.17,16.17,0,0,1-.309,3.126,1.547,1.547,0,0,1-1.516,1.222,1.663,1.663,0,0,1-.472-.07,1.562,1.562,0,0,1-1.037-1.8,13.218,13.218,0,0,0,.24-2.476A12.751,12.751,0,0,0,93.131,172.991Zm0,0" transform="translate(-76.646 -145.094)" fill="#4e4e4e"/>
      <path id="Path_234" data-name="Path 234" d="M20.584,183.058c-.008.5-.046,1.006-.1,1.5A15.842,15.842,0,0,1,6.441,198.477a1.541,1.541,0,0,1-1.671-1.555v-.039A1.508,1.508,0,0,1,6.14,195.4,12.741,12.741,0,0,0,17.5,182.749a8.89,8.89,0,0,1-.232-1.114,3.78,3.78,0,0,0,.658,1.377H19.47Q20.034,183.012,20.584,183.058Zm0,0" transform="translate(-4.098 -155.161)" fill="#4e4e4e"/>
      <path id="Path_237" data-name="Path 237" d="M23.735,169.693,20.8,175.132l-5.415-.774,2.785-5.57.31.155Zm0,0" transform="translate(-13.168 -144.186)" fill="#107cb1"/>
      <path id="Path_238" data-name="Path 238" d="M27.962,74.31l-6.29,11.682-4.735,8.8a.779.779,0,0,1-.681.41.52.52,0,0,1-.108-.008l-5.415-.774a.783.783,0,0,1-.58-.41.756.756,0,0,1,0-.7l7.535-15.071a9.72,9.72,0,0,1,2.05-.642L14.377,88.3l-2.367,4.742,3.822.542,2.538-4.712,3.3-6.135,4.541-8.425Zm0,0" transform="translate(-8.622 -63.479)" fill="#5eb5d8"/>
    </g>
    <g id="Group_198" data-name="Group 198" transform="translate(188.262 240.556)">
      <path id="Path_257" data-name="Path 257" d="M285.482,369.2h-8.5v-5.53h8.561a.214.214,0,0,1,.214.214v5.043A.273.273,0,0,1,285.482,369.2Z" transform="translate(-276.98 -363.673)" fill="#eab14d"/>
      <path id="Path_258" data-name="Path 258" d="M381.079,365.32h-.724a.172.172,0,0,1-.172-.172v-1.475h1.068v1.475A.172.172,0,0,1,381.079,365.32Z" transform="translate(-376.33 -363.673)" fill="#898d95"/>
    </g>
  </g>
</svg>
