<svg id="photo-camera" xmlns="http://www.w3.org/2000/svg" width="38.257" height="30.605" viewBox="0 0 38.257 30.605">
  <g id="Group_77" data-name="Group 77" transform="translate(0 0)">
    <g id="Group_76" data-name="Group 76">
      <path id="Path_66" data-name="Path 66" d="M33.683,52.427H29.691l-2.2-3.327a4.58,4.58,0,0,0-3.784-2H14.554a4.58,4.58,0,0,0-3.784,2l-2.2,3.327H4.574A4.561,4.561,0,0,0,0,57V73.135a4.561,4.561,0,0,0,4.574,4.574H33.683a4.561,4.561,0,0,0,4.574-4.574V57A4.561,4.561,0,0,0,33.683,52.427ZM19.128,73.967A10.292,10.292,0,1,1,29.441,63.7,10.311,10.311,0,0,1,19.128,73.967ZM33.1,58.872h-1.83a1.353,1.353,0,0,1,0-2.7h1.663a1.35,1.35,0,0,1,1.414,1.289A1.317,1.317,0,0,1,33.1,58.872Z" transform="translate(0 -47.104)" fill="#464646"/>
    </g>
  </g>
  <g id="Group_79" data-name="Group 79" transform="translate(13.39 10.853)">
    <g id="Group_78" data-name="Group 78" transform="translate(0 0)">
      <path id="Path_67" data-name="Path 67" d="M170.6,180.736a5.718,5.718,0,1,0,5.739,5.7A5.75,5.75,0,0,0,170.6,180.736Z" transform="translate(-164.864 -180.736)" fill="#464646"/>
    </g>
  </g>
</svg>
