<svg xmlns="http://www.w3.org/2000/svg" xmlns:xlink="http://www.w3.org/1999/xlink" width="26" height="15" viewBox="0 0 26 15">
  <defs>
    <clipPath id="clip-path">
      <rect y="10" width="26" height="15" fill="none"/>
    </clipPath>
    <clipPath id="clip-path-2">
      <rect x="1" y="1" width="23.976" height="14.682" fill="none"/>
    </clipPath>
  </defs>
  <g id="Scroll_Group_1" data-name="Scroll Group 1" transform="translate(0 -10)" clip-path="url(#clip-path)" style="isolation: isolate">
    <g id="Ellipse_26" data-name="Ellipse 26" transform="translate(0 -2)" fill="none" stroke="#00a0d5" stroke-width="3.5" stroke-dasharray="160 0">
      <ellipse cx="13" cy="13.5" rx="13" ry="13.5" stroke="none"/>
      <ellipse cx="13" cy="13.5" rx="11.25" ry="11.75" fill="none"/>
    </g>
    <g id="Scroll_Group_2" data-name="Scroll Group 2" transform="translate(0.012 -2)" clip-path="url(#clip-path-2)" style="isolation: isolate">
      <g id="Path_63" data-name="Path 63" fill="#fff">
        <path d="M 24.22637557983398 12.93185806274414 L 16.2352352142334 12.93185806274414 L 1.749995827674866 12.93185806274414 L 1.749995827674866 1.749997615814209 L 24.22637557983398 1.749997615814209 L 24.22637557983398 12.93185806274414 Z" stroke="none"/>
        <path d="M 3.499996185302734 3.499997138977051 L 3.499996185302734 11.18185806274414 L 16.23523712158203 11.18185806274414 L 22.47637557983398 11.18185806274414 L 22.47637557983398 3.499997138977051 L 3.499996185302734 3.499997138977051 M -3.814697265625e-06 -2.86102294921875e-06 L 25.97637557983398 -2.86102294921875e-06 L 25.97637557983398 14.68185806274414 L 16.23523712158203 14.68185806274414 L -3.814697265625e-06 14.68185806274414 L -3.814697265625e-06 -2.86102294921875e-06 Z" stroke="none" fill="#00a0d5"/>
      </g>
    </g>
  </g>
</svg>
