<svg xmlns="http://www.w3.org/2000/svg" width="37.994" height="31.632" viewBox="0 0 37.994 31.632">
  <g id="cloudy" transform="translate(0 -42.868)">
    <path id="Path_46" data-name="Path 46" d="M140.062,46.273a.742.742,0,0,0,.742-.742V43.61a.742.742,0,1,0-1.484,0v1.92A.742.742,0,0,0,140.062,46.273Z" transform="translate(-128.981)" fill="#0c3151"/>
    <path id="Path_47" data-name="Path 47" d="M3.4,182.933a.742.742,0,0,0-.742-.742H.742a.742.742,0,1,0,0,1.484h1.92A.742.742,0,0,0,3.4,182.933Z" transform="translate(0 -128.984)" fill="#0c3151"/>
    <path id="Path_48" data-name="Path 48" d="M42.366,86.285a.742.742,0,1,0,1.049-1.05l-1.359-1.359a.742.742,0,1,0-1.049,1.05Z" transform="translate(-37.763 -37.764)" fill="#0c3151"/>
    <path id="Path_49" data-name="Path 49" d="M220.282,86.5a.74.74,0,0,0,.525-.218l1.357-1.359a.742.742,0,1,0-1.05-1.049l-1.357,1.359a.742.742,0,0,0,.525,1.266Z" transform="translate(-203.248 -37.764)" fill="#0c3151"/>
    <path id="Path_50" data-name="Path 50" d="M41.007,263.988a.742.742,0,1,0,1.049,1.05l1.359-1.357a.742.742,0,0,0-1.049-1.05Z" transform="translate(-37.763 -203.254)" fill="#0c3151"/>
    <path id="Path_51" data-name="Path 51" d="M56.859,122.692a5.842,5.842,0,0,0-8.02-3.94,6.256,6.256,0,0,0-7.423-1.344,5.86,5.86,0,1,0-7.854,7.091,7.088,7.088,0,0,0-.924,3.521c0,.106,0,.212.008.317a4.173,4.173,0,0,0-1.97,2.458,4.432,4.432,0,0,0,.458,8.84H42.291a5.05,5.05,0,0,0,5.008-4.453H50a.742.742,0,1,0,0-1.484H47.254a5.076,5.076,0,0,0-3.774-4.006,4.431,4.431,0,0,0-7.3-1.6,4.142,4.142,0,0,0-2.053-.25A5.678,5.678,0,0,1,39,122.4a.742.742,0,0,0,.617-.558,4.781,4.781,0,0,1,1.735-2.644,4.768,4.768,0,0,1,6.705.929.742.742,0,0,0,.964.2,4.357,4.357,0,0,1,6.492,3.2.742.742,0,0,0,.778.644c.059,0,.119-.005.179-.005a4.768,4.768,0,0,1,.177,9.533.742.742,0,0,0,.027,1.484H56.7a6.252,6.252,0,0,0,.163-12.488Zm-22.193,6.6A2.672,2.672,0,0,1,36,129.65a.742.742,0,0,0,.963-.2,2.948,2.948,0,0,1,5.22,1.061.742.742,0,0,0,.616.557,3.558,3.558,0,0,1-.506,7.08H31.134a2.948,2.948,0,0,1,0-5.9c.038,0,.075,0,.113,0a.74.74,0,0,0,.768-.644A2.68,2.68,0,0,1,34.666,129.294Zm3.642-8.281a7.112,7.112,0,0,0-3.847,2.237,4.376,4.376,0,0,1,1.342-8.541,4.349,4.349,0,0,1,4.3,3.589A6.281,6.281,0,0,0,38.308,121.013Z" transform="translate(-24.721 -65.135)" fill="#0c3151"/>
    <path id="Path_52" data-name="Path 52" d="M375.306,389.122h0a.742.742,0,1,0,.746.742A.74.74,0,0,0,375.3,389.122Z" transform="translate(-346.767 -320.559)" fill="#0c3151"/>
  </g>
</svg>
