<svg id="Page-1" xmlns="http://www.w3.org/2000/svg" width="41.166" height="41.163" viewBox="0 0 41.166 41.163">
  <g id="_003---Call" data-name="003---Call">
    <path id="Shape" d="M18.044,24.136A16.613,16.613,0,0,1,13.028,14.7a1.411,1.411,0,0,1,.405-1.181l3.18-3.178a1.419,1.419,0,0,0,.2-1.757L11.751.727A1.419,1.419,0,0,0,9.912.21L1.785,4.037A1.412,1.412,0,0,0,1,5.447c.426,4.045,2.189,13.99,11.962,23.764S32.682,40.747,36.73,41.173a1.412,1.412,0,0,0,1.41-.781l3.828-8.127a1.419,1.419,0,0,0-.515-1.836l-7.861-5.061a1.419,1.419,0,0,0-1.757.2l-3.178,3.18a1.411,1.411,0,0,1-1.181.405A16.613,16.613,0,0,1,18.044,24.136Z" transform="translate(-0.997 -0.017)" fill="#464646"/>
    <path id="Shape-2" data-name="Shape" d="M41.485,24.9a1.419,1.419,0,0,1-1.419-1.419A10.658,10.658,0,0,0,29.419,12.839a1.419,1.419,0,1,1,0-2.839A13.5,13.5,0,0,1,42.9,23.485,1.419,1.419,0,0,1,41.485,24.9Z" transform="translate(-8.835 -2.903)" fill="#464646"/>
    <path id="Shape-3" data-name="Shape" d="M48.582,22a1.419,1.419,0,0,1-1.419-1.419A17.763,17.763,0,0,0,29.419,2.839a1.419,1.419,0,1,1,0-2.839A20.6,20.6,0,0,1,50,20.582,1.419,1.419,0,0,1,48.582,22Z" transform="translate(-8.835)" fill="#464646"/>
  </g>
</svg>
